<?xml version="1.0" encoding="UTF-8" standalone="no"?>
<!-- Created with Inkscape (http://www.inkscape.org/) -->

<svg
   width="105.39526mm"
   height="128.30882mm"
   viewBox="0 0 105.39526 128.30882"
   version="1.1"
   id="svg2401"
   inkscape:version="1.2 (dc2aedaf03, 2022-05-15)"
   sodipodi:docname="concept.svg"
   xmlns:inkscape="http://www.inkscape.org/namespaces/inkscape"
   xmlns:sodipodi="http://sodipodi.sourceforge.net/DTD/sodipodi-0.dtd"
   xmlns="http://www.w3.org/2000/svg"
   xmlns:svg="http://www.w3.org/2000/svg">
  <sodipodi:namedview
     id="namedview2403"
     pagecolor="#ffffff"
     bordercolor="#999999"
     borderopacity="1"
     inkscape:showpageshadow="0"
     inkscape:pageopacity="0"
     inkscape:pagecheckerboard="0"
     inkscape:deskcolor="#d1d1d1"
     inkscape:document-units="mm"
     showgrid="false"
     inkscape:zoom="2.5575084"
     inkscape:cx="204.88691"
     inkscape:cy="163.04932"
     inkscape:window-width="842"
     inkscape:window-height="1340"
     inkscape:window-x="0"
     inkscape:window-y="0"
     inkscape:window-maximized="1"
     inkscape:current-layer="layer1" />
  <defs
     id="defs2398" />
  <g
     inkscape:label="Layer 1"
     inkscape:groupmode="layer"
     id="layer1"
     transform="translate(-5.2393185,-3.7313011)">
    <g
       id="g54"
       transform="matrix(0.35277777,0,0,-0.35277777,17.37244,126.09023)">
      <path
         d="M 246.81941,45.23756 H 11.1367 c -1.56556,0 -2.83467,-1.2691 -2.83467,-2.83465 V -8.70313 c 0,-1.56556 1.26911,-2.83467 2.83467,-2.83467 h 235.68271 c 1.56557,0 2.83467,1.26911 2.83467,2.83467 v 51.10604 c 0,1.56555 -1.2691,2.83465 -2.83467,2.83465 z"
         style="fill:#e6e6ff;fill-opacity:1;fill-rule:nonzero;stroke:#8080ff;stroke-width:0.3985;stroke-linecap:butt;stroke-linejoin:miter;stroke-miterlimit:10;stroke-dasharray:1.99255, 1.99255;stroke-dashoffset:9.96277;stroke-opacity:1"
         id="path56" />
    </g>
    <g
       id="g62"
       transform="matrix(0.35277777,0,0,-0.35277777,16.467773,126.9949)">
      <path
         d="M 246.81941,45.23756 H 11.1367 c -1.56556,0 -2.83467,-1.2691 -2.83467,-2.83465 V -8.70313 c 0,-1.56556 1.26911,-2.83467 2.83467,-2.83467 h 235.68271 c 1.56557,0 2.83467,1.26911 2.83467,2.83467 v 51.10604 c 0,1.56555 -1.2691,2.83465 -2.83467,2.83465 z"
         style="fill:#e6e6ff;fill-opacity:1;fill-rule:nonzero;stroke:#8080ff;stroke-width:0.3985;stroke-linecap:butt;stroke-linejoin:miter;stroke-miterlimit:10;stroke-dasharray:1.99255, 1.99255;stroke-dashoffset:9.96277;stroke-opacity:1"
         id="path64" />
    </g>
    <path
       d="M 102.63551,111.94075 H 19.491893 c -0.552295,0 -1.000008,0.44771 -1.000008,1.00001 v 18.02907 c 0,0.5523 0.447713,1.00001 1.000008,1.00001 h 83.143617 c 0.5523,0 1.00001,-0.44771 1.00001,-1.00001 v -18.02907 c 0,-0.5523 -0.44771,-1.00001 -1.00001,-1.00001 z"
       style="fill:#e6e6ff;fill-opacity:1;fill-rule:nonzero;stroke:#8080ff;stroke-width:0.140582;stroke-linecap:butt;stroke-linejoin:miter;stroke-miterlimit:10;stroke-dasharray:none;stroke-opacity:1"
       id="path68" />
    <path
       d="M 78.343381,3.9421793 H 52.784082 c -0.552295,0 -1.000005,0.4477174 -1.000005,1.0000086 V 10.85395 c 0,0.552298 0.44771,1.000008 1.000005,1.000008 h 25.559299 c 0.552299,0 1.000013,-0.44771 1.000013,-1.000008 V 4.9421879 c 0,-0.5522912 -0.447714,-1.0000086 -1.000013,-1.0000086 z"
       style="fill:#e6e6ff;fill-opacity:1;fill-rule:nonzero;stroke:#000000;stroke-width:0.421756;stroke-linecap:butt;stroke-linejoin:miter;stroke-miterlimit:10;stroke-dasharray:none;stroke-opacity:1"
       id="path82" />
    <g
       id="g88"
       transform="matrix(0.35277777,0,0,-0.35277777,-46.536358,228.64054)">
      <text
         xml:space="preserve"
         transform="matrix(1,0,0,-1,284.372,622.981)"
         style="font-variant:normal;font-weight:bold;font-size:11.9552px;font-family:LibertinusSans;-inkscape-font-specification:LibertinusSans-Bold;writing-mode:lr-tb;fill:#000000;fill-opacity:1;fill-rule:nonzero;stroke:none"
         id="text92"><tspan
           x="0 9.5522051 16.557953 20.742271 26.8992 32.542053 39.762997 44.772224 49.004364 55.771008 60.708504"
           y="0"
           sodipodi:role="line"
           id="tspan90">Objectstore</tspan></text>
      <g
         id="g94"
         transform="translate(284.372,622.981)" />
    </g>
    <path
       d="M 75.36999,24.409524 H 55.757473 c -0.552299,0 -1.000009,0.44771 -1.000009,1.000008 v 4.977571 c 0,0.552298 0.44771,1.000009 1.000009,1.000009 H 75.36999 c 0.552299,0 1.000009,-0.447711 1.000009,-1.000009 v -4.977571 c 0,-0.552298 -0.44771,-1.000008 -1.000009,-1.000008 z"
       style="fill:#ffffff;fill-opacity:1;fill-rule:nonzero;stroke:#000000;stroke-width:0.421756;stroke-linecap:butt;stroke-linejoin:miter;stroke-miterlimit:10;stroke-dasharray:none;stroke-opacity:1"
       id="path102" />
    <g
       id="g108"
       transform="matrix(0.35277777,0,0,-0.35277777,-46.536358,228.64054)">
      <text
         xml:space="preserve"
         transform="matrix(1,0,0,-1,292.8,564.964)"
         style="font-variant:normal;font-weight:bold;font-size:11.9552px;font-family:LibertinusSans;-inkscape-font-specification:LibertinusSans-Bold;writing-mode:lr-tb;fill:#000000;fill-opacity:1;fill-rule:nonzero;stroke:none"
         id="text112"><tspan
           x="0 9.0979071 15.26679 19.498932 25.667814 32.673561 38.842445 43.851673"
           y="0"
           sodipodi:role="line"
           id="tspan110">Database</tspan></text>
      <g
         id="g114"
         transform="translate(292.8,564.964)" />
    </g>
    <g
       id="g124"
       transform="matrix(0.35277777,0,0,-0.35277777,17.37244,126.09023)">
      <path
         d="m 221.75365,264.78064 h -46.65198 c -1.56557,0 -2.83467,-1.26912 -2.83467,-2.83467 V 248.2966 c 0,-1.56557 1.2691,-2.83467 2.83467,-2.83467 h 46.65198 c 1.56556,0 2.83467,1.2691 2.83467,2.83467 v 13.64937 c 0,1.56555 -1.26911,2.83467 -2.83467,2.83467 z"
         style="fill:#e6e6e6;fill-opacity:1;fill-rule:nonzero;stroke:#000000;stroke-width:0.3985;stroke-linecap:butt;stroke-linejoin:miter;stroke-miterlimit:10;stroke-dasharray:1.99255, 1.99255;stroke-dashoffset:9.96277;stroke-opacity:1"
         id="path126" />
    </g>
    <g
       id="g132"
       transform="matrix(0.35277777,0,0,-0.35277777,16.467773,126.9949)">
      <path
         d="m 221.75365,264.78064 h -46.65198 c -1.56557,0 -2.83467,-1.26912 -2.83467,-2.83467 V 248.2966 c 0,-1.56557 1.2691,-2.83467 2.83467,-2.83467 h 46.65198 c 1.56556,0 2.83467,1.2691 2.83467,2.83467 v 13.64937 c 0,1.56555 -1.26911,2.83467 -2.83467,2.83467 z"
         style="fill:#e6e6e6;fill-opacity:1;fill-rule:nonzero;stroke:#000000;stroke-width:0.3985;stroke-linecap:butt;stroke-linejoin:miter;stroke-miterlimit:10;stroke-dasharray:1.99255, 1.99255;stroke-dashoffset:9.96277;stroke-opacity:1"
         id="path134" />
    </g>
    <path
       d="M 93.792871,34.490836 H 77.33509 c -0.552299,0 -1.000009,0.447718 -1.000009,1.000009 v 4.815194 c 0,0.552298 0.44771,1.000009 1.000009,1.000009 h 16.457781 c 0.552295,0 1.000009,-0.447711 1.000009,-1.000009 v -4.815194 c 0,-0.552291 -0.447714,-1.000009 -1.000009,-1.000009 z"
       style="fill:#e6e6e6;fill-opacity:1;fill-rule:nonzero;stroke:#000000;stroke-width:0.140582;stroke-linecap:butt;stroke-linejoin:miter;stroke-miterlimit:10;stroke-dasharray:none;stroke-opacity:1"
       id="path138" />
    <g
       id="g144"
       transform="matrix(0.35277777,0,0,-0.35277777,-46.536358,228.64054)">
      <text
         xml:space="preserve"
         transform="matrix(1,0,0,-1,353.964,536.77)"
         style="font-variant:normal;font-weight:bold;font-size:11.9552px;font-family:LibertinusSans;-inkscape-font-specification:LibertinusSans-Bold;writing-mode:lr-tb;fill:#000000;fill-opacity:1;fill-rule:nonzero;stroke:none"
         id="text148"><tspan
           x="0 9.0979071 15.26679 19.498932 25.667814 30.677044 36.750286"
           y="0"
           sodipodi:role="line"
           id="tspan146">Dataset</tspan></text>
      <g
         id="g150"
         transform="translate(353.964,536.77)" />
    </g>
    <g
       id="g160"
       transform="matrix(0.35277777,0,0,-0.35277777,17.37244,126.09023)">
      <path
         d="m 254.64348,237.988 h -55.73802 c -1.56556,0 -2.83467,-1.2691 -2.83467,-2.83465 V 218.3956 c 0,-1.56557 1.26911,-2.83467 2.83467,-2.83467 h 55.73802 c 1.56557,0 2.83467,1.2691 2.83467,2.83467 v 16.75775 c 0,1.56555 -1.2691,2.83465 -2.83467,2.83465 z"
         style="fill:#e6e6e6;fill-opacity:1;fill-rule:nonzero;stroke:#000000;stroke-width:0.3985;stroke-linecap:butt;stroke-linejoin:miter;stroke-miterlimit:10;stroke-dasharray:1.99255, 1.99255;stroke-dashoffset:9.96277;stroke-opacity:1"
         id="path162" />
    </g>
    <g
       id="g168"
       transform="matrix(0.35277777,0,0,-0.35277777,16.467773,126.9949)">
      <path
         d="m 254.64348,237.988 h -55.73802 c -1.56556,0 -2.83467,-1.2691 -2.83467,-2.83465 V 218.3956 c 0,-1.56557 1.26911,-2.83467 2.83467,-2.83467 h 55.73802 c 1.56557,0 2.83467,1.2691 2.83467,2.83467 v 16.75775 c 0,1.56555 -1.2691,2.83465 -2.83467,2.83465 z"
         style="fill:#e6e6e6;fill-opacity:1;fill-rule:nonzero;stroke:#000000;stroke-width:0.3985;stroke-linecap:butt;stroke-linejoin:miter;stroke-miterlimit:10;stroke-dasharray:1.99255, 1.99255;stroke-dashoffset:9.96277;stroke-opacity:1"
         id="path170" />
    </g>
    <path
       d="M 105.39567,43.942684 H 85.732538 c -0.552295,0 -1.000009,0.44771 -1.000009,1.000002 v 5.911761 c 0,0.552299 0.447714,1.000009 1.000009,1.000009 h 19.663132 c 0.5523,0 1.00001,-0.44771 1.00001,-1.000009 v -5.911761 c 0,-0.552292 -0.44771,-1.000002 -1.00001,-1.000002 z"
       style="fill:#e6e6e6;fill-opacity:1;fill-rule:nonzero;stroke:#000000;stroke-width:0.140582;stroke-linecap:butt;stroke-linejoin:miter;stroke-miterlimit:10;stroke-dasharray:none;stroke-opacity:1"
       id="path174" />
    <g
       id="g180"
       transform="matrix(0.35277777,0,0,-0.35277777,-46.536358,228.64054)">
      <text
         xml:space="preserve"
         transform="matrix(1,0,0,-1,377.768,509.596)"
         style="font-variant:normal;font-weight:bold;font-size:11.9552px;font-family:LibertinusSans;-inkscape-font-specification:LibertinusSans-Bold;writing-mode:lr-tb;fill:#000000;fill-opacity:1;fill-rule:nonzero;stroke:none"
         id="text184"><tspan
           x="0 6.4797182 13.652839 19.821722 26.815514 31.824743 39.069595 45.836235"
           y="0"
           sodipodi:role="line"
           id="tspan182">Snapshot</tspan></text>
      <g
         id="g186"
         transform="translate(377.768,509.596)" />
    </g>
    <path
       d="M 44.816857,34.423357 H 6.309618 c -0.5522947,0 -1.0000085,0.44771 -1.0000085,1.000009 v 4.950152 c 0,0.552299 0.4477138,1.000009 1.0000085,1.000009 h 38.507239 c 0.552295,0 1.000008,-0.44771 1.000008,-1.000009 v -4.950152 c 0,-0.552299 -0.447713,-1.000009 -1.000008,-1.000009 z"
       style="fill:#e6e6e6;fill-opacity:1;fill-rule:nonzero;stroke:#000000;stroke-width:0.140582;stroke-linecap:butt;stroke-linejoin:miter;stroke-miterlimit:10;stroke-dasharray:none;stroke-opacity:1"
       id="path194" />
    <g
       id="g200"
       transform="matrix(0.35277777,0,0,-0.35277777,-46.536358,228.64054)">
      <text
         xml:space="preserve"
         transform="matrix(1,0,0,-1,152.635,536.579)"
         style="font-variant:normal;font-weight:bold;font-size:11.9552px;font-family:LibertinusSans;-inkscape-font-specification:LibertinusSans-Bold;writing-mode:lr-tb;fill:#000000;fill-opacity:1;fill-rule:nonzero;stroke:none"
         id="text204"><tspan
           x="0 8.3805952 12.014976 15.649357 22.499687 28.14254 34.311424 38.543564 42.273586 49.04023 59.202152 68.335922 74.504807 81.677925 88.743446 92.377831 98.451073"
           y="0"
           sodipodi:role="line"
           id="tspan202">AllocationHandler</tspan></text>
      <g
         id="g206"
         transform="translate(152.635,536.579)" />
    </g>
    <g
       id="g216"
       transform="matrix(0.35277777,0,0,-0.35277777,17.37244,126.09023)">
      <path
         d="m 163.91034,208.20378 h -44.3526 c -1.56555,0 -2.83466,-1.2691 -2.83466,-2.83467 V 191.4862 c 0,-1.56555 1.26911,-2.83465 2.83466,-2.83465 h 44.3526 c 1.56555,0 2.83467,1.2691 2.83467,2.83465 v 13.88291 c 0,1.56557 -1.26912,2.83467 -2.83467,2.83467 z"
         style="fill:#ffffff;fill-opacity:1;fill-rule:nonzero;stroke:#000000;stroke-width:1.19553;stroke-linecap:butt;stroke-linejoin:miter;stroke-miterlimit:10;stroke-dasharray:1.99255, 1.99255;stroke-dashoffset:9.96277;stroke-opacity:1"
         id="path218" />
    </g>
    <g
       id="g224"
       transform="matrix(0.35277777,0,0,-0.35277777,16.467773,126.9949)">
      <path
         d="m 163.91034,208.20378 h -44.3526 c -1.56555,0 -2.83466,-1.2691 -2.83466,-2.83467 V 191.4862 c 0,-1.56555 1.26911,-2.83465 2.83466,-2.83465 h 44.3526 c 1.56555,0 2.83467,1.2691 2.83467,2.83465 v 13.88291 c 0,1.56557 -1.26912,2.83467 -2.83467,2.83467 z"
         style="fill:#ffffff;fill-opacity:1;fill-rule:nonzero;stroke:#000000;stroke-width:1.19553;stroke-linecap:butt;stroke-linejoin:miter;stroke-miterlimit:10;stroke-dasharray:1.99255, 1.99255;stroke-dashoffset:9.96277;stroke-opacity:1"
         id="path226" />
    </g>
    <path
       d="M 73.387037,54.449895 H 57.740426 c -0.552291,0 -1.000005,0.44771 -1.000005,1.000008 v 4.897582 c 0,0.552292 0.447714,1.000002 1.000005,1.000002 h 15.646611 c 0.552291,0 1.000009,-0.44771 1.000009,-1.000002 v -4.897582 c 0,-0.552298 -0.447718,-1.000008 -1.000009,-1.000008 z"
       style="fill:#ffffff;fill-opacity:1;fill-rule:nonzero;stroke:#000000;stroke-width:0.421756;stroke-linecap:butt;stroke-linejoin:miter;stroke-miterlimit:10;stroke-dasharray:none;stroke-opacity:1"
       id="path230" />
    <g
       id="g236"
       transform="matrix(0.35277777,0,0,-0.35277777,-46.536358,228.64054)">
      <text
         xml:space="preserve"
         transform="matrix(1,0,0,-1,298.421,479.961)"
         style="font-variant:normal;font-weight:bold;font-size:11.9552px;font-family:LibertinusSans;-inkscape-font-specification:LibertinusSans-Bold;writing-mode:lr-tb;fill:#000000;fill-opacity:1;fill-rule:nonzero;stroke:none"
         id="text240"><tspan
           x="0"
           y="0"
           id="tspan238">B</tspan></text>
      <text
         xml:space="preserve"
         transform="matrix(1,0,0,-1,306.57,484.301)"
         style="font-style:normal;font-variant:normal;font-weight:normal;font-stretch:normal;font-size:8.7671px;font-family:'Fira Sans';-inkscape-font-specification:'Fira Sans';writing-mode:lr-tb;fill:#000000;fill-opacity:1;fill-rule:nonzero;stroke:none"
         id="text244"><tspan
           x="0"
           y="0"
           id="tspan242"
           style="font-style:normal;font-variant:normal;font-weight:normal;font-stretch:normal;font-family:'Fira Sans';-inkscape-font-specification:'Fira Sans'">ε</tspan></text>
      <text
         xml:space="preserve"
         transform="matrix(1,0,0,-1,311.592,479.961)"
         style="font-variant:normal;font-weight:bold;font-size:11.9552px;font-family:LibertinusSans;-inkscape-font-specification:LibertinusSans-Bold;writing-mode:lr-tb;fill:#000000;fill-opacity:1;fill-rule:nonzero;stroke:none"
         id="text248"><tspan
           x="0 4.1125889 8.3447294 13.282228 19.439156"
           y="0"
           sodipodi:role="line"
           id="tspan246">-tree</tspan></text>
      <g
         id="g250"
         transform="translate(298.421,479.961)" />
    </g>
    <path
       d="M 65.563732,22.553835 V 12.064831"
       style="fill:none;stroke:#000000;stroke-width:0.281167;stroke-linecap:butt;stroke-linejoin:miter;stroke-miterlimit:10;stroke-dasharray:none;stroke-opacity:1"
       id="path266" />
    <g
       id="g270"
       transform="matrix(0,0.35277777,0.35277777,0,65.56373,22.553837)">
      <path
         d="M 4.66248,0 C 3.28098,0.25902 1.0361,1.0361 -0.51805,1.94269 V -1.94269 C 1.0361,-1.0361 3.28098,-0.25902 4.66248,0"
         style="fill:#000000;fill-opacity:1;fill-rule:nonzero;stroke:none"
         id="path272" />
    </g>
    <path
       d="M 52.950914,31.050999 39.742688,34.353066"
       style="fill:none;stroke:#000000;stroke-width:0.281167;stroke-linecap:butt;stroke-linejoin:miter;stroke-miterlimit:10;stroke-dasharray:none;stroke-opacity:1"
       id="path276" />
    <g
       id="g280"
       transform="matrix(0.34223677,-0.08555566,-0.08555566,-0.34223677,52.95091,31.051006)">
      <path
         d="M 4.66248,0 C 3.28098,0.25902 1.0361,1.0361 -0.51805,1.94269 V -1.94269 C 1.0361,-1.0361 3.28098,-0.25902 4.66248,0"
         style="fill:#000000;fill-opacity:1;fill-rule:nonzero;stroke:none"
         id="path282" />
    </g>
    <path
       d="m 76.188932,31.597992 6.555846,2.2819"
       style="fill:none;stroke:#000000;stroke-width:0.281167;stroke-linecap:butt;stroke-linejoin:miter;stroke-miterlimit:10;stroke-dasharray:none;stroke-opacity:1"
       id="path286" />
    <g
       id="g290"
       transform="matrix(0.33316333,0.11595805,0.11595805,-0.33316333,82.744778,33.879885)">
      <path
         d="M 4.66248,0 C 3.28098,0.25902 1.0361,1.0361 -0.51805,1.94269 V -1.94269 C 1.0361,-1.0361 3.28098,-0.25902 4.66248,0"
         style="fill:#000000;fill-opacity:1;fill-rule:nonzero;stroke:none"
         id="path292" />
    </g>
    <path
       d="m 91.384796,41.376339 2.767224,1.652707"
       style="fill:none;stroke:#000000;stroke-width:0.281167;stroke-linecap:butt;stroke-linejoin:miter;stroke-miterlimit:10;stroke-dasharray:none;stroke-opacity:1"
       id="path296" />
    <g
       id="g300"
       transform="matrix(0.30285972,0.18087975,0.18087975,-0.30285972,94.15202,43.029046)">
      <path
         d="M 4.66248,0 C 3.28098,0.25902 1.0361,1.0361 -0.51805,1.94269 V -1.94269 C 1.0361,-1.0361 3.28098,-0.25902 4.66248,0"
         style="fill:#000000;fill-opacity:1;fill-rule:nonzero;stroke:none"
         id="path302" />
    </g>
    <path
       d="M 65.563732,50.714571 V 31.597992"
       style="fill:none;stroke:#000000;stroke-width:0.281167;stroke-linecap:butt;stroke-linejoin:miter;stroke-miterlimit:10;stroke-dasharray:none;stroke-opacity:1"
       id="path306" />
    <g
       id="g310"
       transform="matrix(0,0.35277777,0.35277777,0,65.563732,50.714571)">
      <path
         d="M 4.66248,0 C 3.28098,0.25902 1.0361,1.0361 -0.51805,1.94269 V -1.94269 C 1.0361,-1.0361 3.28098,-0.25902 4.66248,0"
         style="fill:#000000;fill-opacity:1;fill-rule:nonzero;stroke:none"
         id="path312" />
    </g>
    <path
       d="m 72.266481,51.196458 9.821622,-9.820119"
       style="fill:none;stroke:#000000;stroke-width:0.281167;stroke-linecap:butt;stroke-linejoin:miter;stroke-miterlimit:10;stroke-dasharray:none;stroke-opacity:1"
       id="path316" />
    <g
       id="g320"
       transform="matrix(-0.24946327,0.24942447,0.24942447,0.24946327,72.266488,51.196455)">
      <path
         d="M 4.66248,0 C 3.28098,0.25902 1.0361,1.0361 -0.51805,1.94269 V -1.94269 C 1.0361,-1.0361 3.28098,-0.25902 4.66248,0"
         style="fill:#000000;fill-opacity:1;fill-rule:nonzero;stroke:none"
         id="path322" />
    </g>
    <path
       d="m 78.037781,53.738413 6.624457,-2.20961"
       style="fill:none;stroke:#000000;stroke-width:0.281167;stroke-linecap:butt;stroke-linejoin:miter;stroke-miterlimit:10;stroke-dasharray:none;stroke-opacity:1"
       id="path326" />
    <g
       id="g330"
       transform="matrix(-0.33463794,0.11161536,0.11161536,0.33463794,78.037788,53.738406)">
      <path
         d="M 4.66248,0 C 3.28098,0.25902 1.0361,1.0361 -0.51805,1.94269 V -1.94269 C 1.0361,-1.0361 3.28098,-0.25902 4.66248,0"
         style="fill:#000000;fill-opacity:1;fill-rule:nonzero;stroke:none"
         id="path332" />
    </g>
    <path
       d="M 84.220564,74.010533 H 46.906899 c -0.552294,0 -1.000005,0.447717 -1.000005,1.000009 v 5.776799 c 0,0.552291 0.447711,1.000005 1.000005,1.000005 h 37.313665 c 0.552291,0 1.000008,-0.447714 1.000008,-1.000005 v -5.776799 c 0,-0.552292 -0.447717,-1.000009 -1.000008,-1.000009 z"
       style="fill:#ffffff;fill-opacity:1;fill-rule:nonzero;stroke:#000000;stroke-width:0.421756;stroke-linecap:butt;stroke-linejoin:miter;stroke-miterlimit:10;stroke-dasharray:none;stroke-opacity:1"
       id="path338" />
    <g
       id="g344"
       transform="matrix(0.35277777,0,0,-0.35277777,-46.536357,228.64054)">
      <text
         xml:space="preserve"
         transform="matrix(1,0,0,-1,267.712,424.748)"
         style="font-variant:normal;font-weight:bold;font-size:11.9552px;font-family:LibertinusSans;-inkscape-font-specification:LibertinusSans-Bold;writing-mode:lr-tb;fill:#000000;fill-opacity:1;fill-rule:nonzero;stroke:none"
         id="text348"><tspan
           x="0 9.0979071 15.26679 19.498932 28.656614 39.667355 45.836235 53.009357 59.178242 65.885109 71.958351 82.622391 88.695625 95.868752"
           y="0"
           sodipodi:role="line"
           id="tspan346">DataManagement</tspan></text>
      <g
         id="g350"
         transform="translate(267.712,424.748)" />
    </g>
    <path
       d="M 78.708203,93.943299 H 52.419267 c -0.552298,0 -1.000008,0.447714 -1.000008,1.000009 v 5.911762 c 0,0.55229 0.44771,1.00001 1.000008,1.00001 h 26.288936 c 0.552291,0 1.000009,-0.44772 1.000009,-1.00001 v -5.911762 c 0,-0.552295 -0.447718,-1.000009 -1.000009,-1.000009 z"
       style="fill:#ffffff;fill-opacity:1;fill-rule:nonzero;stroke:#000000;stroke-width:0.421756;stroke-linecap:butt;stroke-linejoin:miter;stroke-miterlimit:10;stroke-dasharray:none;stroke-opacity:1"
       id="path358" />
    <g
       id="g364"
       transform="matrix(0.35277777,0,0,-0.35277777,-46.536358,228.64054)">
      <text
         xml:space="preserve"
         transform="matrix(1,0,0,-1,283.337,367.863)"
         style="font-variant:normal;font-weight:bold;font-size:11.9552px;font-family:LibertinusSans;-inkscape-font-specification:LibertinusSans-Bold;writing-mode:lr-tb;fill:#000000;fill-opacity:1;fill-rule:nonzero;stroke:none"
         id="text368"><tspan
           x="0 6.4797182 10.711859 17.478502 22.511642 28.680525 35.38739 44.449432 51.598644 58.448975 65.215614"
           y="0"
           sodipodi:role="line"
           id="tspan366">StoragePool</tspan></text>
      <g
         id="g370"
         transform="translate(283.337,367.863)" />
    </g>
    <g
       id="g380"
       transform="matrix(0.35277777,0,0,-0.35277777,-46.536358,228.64054)">
      <text
         xml:space="preserve"
         transform="matrix(1,0,0,-1,376.751,375.006)"
         style="font-variant:normal;font-weight:normal;font-size:11.9552px;font-family:LibertinusSans;-inkscape-font-specification:LibertinusSans-Regular;writing-mode:lr-tb;fill:#000000;fill-opacity:1;fill-rule:nonzero;stroke:none"
         id="text386"><tspan
           x="0 8.0936708 14.657075 20.156467 25.285248 31.298714 36.032974 42.452915"
           y="0"
           sodipodi:role="line"
           id="tspan382">Checksum</tspan><tspan
           x="-6.2160001 1.8776704 7.8552704 17.503117 23.755686 27.90414 33.319847 38.054104 42.788364 45.896717 51.874317"
           y="14.446"
           sodipodi:role="line"
           id="tspan384">Compression</tspan></text>
      <g
         id="g388"
         transform="translate(370.535,360.56)" />
    </g>
    <path
       d="M 107.56425,68.799603 H 43.695994 c -1.656892,0 -3.00004,1.343142 -3.00004,3.000037 v 32.26634 c 0,1.65689 1.343148,3.00003 3.00004,3.00003 h 63.868256 c 1.65689,0 3.00003,-1.34314 3.00003,-3.00003 V 71.79964 c 0,-1.656895 -1.34314,-3.000037 -3.00003,-3.000037 z"
       style="fill:none;stroke:#808080;stroke-width:0.140582;stroke-linecap:butt;stroke-linejoin:miter;stroke-miterlimit:10;stroke-dasharray:1.05439, 1.05439;stroke-dashoffset:0;stroke-opacity:1"
       id="path396" />
    <path
       d="M 35.443312,69.423798 H 15.68316 c -0.552288,0 -1.000005,0.44771 -1.000005,1.000001 v 4.950164 c 0,0.552291 0.447717,1.000005 1.000005,1.000005 h 19.760152 c 0.552291,0 1.000008,-0.447714 1.000008,-1.000005 v -4.950164 c 0,-0.552291 -0.447717,-1.000001 -1.000008,-1.000001 z"
       style="fill:#e6e6e6;fill-opacity:1;fill-rule:nonzero;stroke:#000000;stroke-width:0.140582;stroke-linecap:butt;stroke-linejoin:miter;stroke-miterlimit:10;stroke-dasharray:none;stroke-opacity:1"
       id="path408" />
    <g
       id="g414"
       transform="matrix(0.35277777,0,0,-0.35277777,-46.536358,228.64054)">
      <text
         xml:space="preserve"
         transform="matrix(1,0,0,-1,179.205,437.367)"
         style="font-variant:normal;font-weight:bold;font-size:11.9552px;font-family:LibertinusSans;-inkscape-font-specification:LibertinusSans-Bold;writing-mode:lr-tb;fill:#000000;fill-opacity:1;fill-rule:nonzero;stroke:none"
         id="text418"><tspan
           x="0 8.3805952 12.014976 15.649357 22.499687 28.14254 34.311424 38.543564 45.310207"
           y="0"
           sodipodi:role="line"
           id="tspan416">Allocator</tspan></text>
      <g
         id="g420"
         transform="translate(179.205,437.367)" />
    </g>
    <path
       d="M 32.484684,79.423919 H 18.641783 c -0.552291,0 -1.000008,0.44771 -1.000008,1.000008 v 4.950157 c 0,0.552294 0.447717,1.000008 1.000008,1.000008 h 13.842901 c 0.552292,0 1.000009,-0.447714 1.000009,-1.000008 v -4.950157 c 0,-0.552298 -0.447717,-1.000008 -1.000009,-1.000008 z"
       style="fill:#e6e6e6;fill-opacity:1;fill-rule:nonzero;stroke:#000000;stroke-width:0.140582;stroke-linecap:butt;stroke-linejoin:miter;stroke-miterlimit:10;stroke-dasharray:none;stroke-opacity:1"
       id="path428" />
    <g
       id="g434"
       transform="matrix(0.35277777,0,0,-0.35277777,-46.536357,228.64054)">
      <text
         xml:space="preserve"
         transform="matrix(1,0,0,-1,187.592,409.02)"
         style="font-variant:normal;font-weight:bold;font-size:11.9552px;font-family:LibertinusSans;-inkscape-font-specification:LibertinusSans-Bold;writing-mode:lr-tb;fill:#000000;fill-opacity:1;fill-rule:nonzero;stroke:none"
         id="text438"><tspan
           x="0 8.4403715 14.609255 20.25211 27.49696"
           y="0"
           sodipodi:role="line"
           id="tspan436">Cache</tspan></text>
      <g
         id="g440"
         transform="translate(187.592,409.02)" />
    </g>
    <path
       d="M 65.563732,72.154841 V 61.558363"
       style="fill:none;stroke:#000000;stroke-width:0.281167;stroke-linecap:butt;stroke-linejoin:miter;stroke-miterlimit:10;stroke-dasharray:none;stroke-opacity:1"
       id="path448" />
    <g
       id="g452"
       transform="matrix(0,0.35277777,0.35277777,0,65.56373,72.154843)">
      <path
         d="M 4.66248,0 C 3.28098,0.25902 1.0361,1.0361 -0.51805,1.94269 V -1.94269 C 1.0361,-1.0361 3.28098,-0.25902 4.66248,0"
         style="fill:#000000;fill-opacity:1;fill-rule:nonzero;stroke:none"
         id="path454" />
    </g>
    <path
       d="M 61.469333,73.79966 30.266682,42.606679"
       style="fill:none;stroke:#000000;stroke-width:0.281167;stroke-linecap:butt;stroke-linejoin:miter;stroke-miterlimit:10;stroke-dasharray:none;stroke-opacity:1"
       id="path458" />
    <g
       id="g462"
       transform="matrix(-0.24948444,-0.24941036,-0.24941036,0.24948444,30.266689,42.606683)">
      <path
         d="M 4.66248,0 C 3.28098,0.25902 1.0361,1.0361 -0.51805,1.94269 V -1.94269 C 1.0361,-1.0361 3.28098,-0.25902 4.66248,0"
         style="fill:#000000;fill-opacity:1;fill-rule:nonzero;stroke:none"
         id="path464" />
    </g>
    <path
       d="M 65.563732,81.998223 V 92.08761"
       style="fill:none;stroke:#000000;stroke-width:0.281167;stroke-linecap:butt;stroke-linejoin:miter;stroke-miterlimit:10;stroke-dasharray:none;stroke-opacity:1"
       id="path468" />
    <g
       id="g472"
       transform="matrix(0,0.35277777,0.35277777,0,65.563733,92.087609)">
      <path
         d="M 4.66248,0 C 3.28098,0.25902 1.0361,1.0361 -0.51805,1.94269 V -1.94269 C 1.0361,-1.0361 3.28098,-0.25902 4.66248,0"
         style="fill:#000000;fill-opacity:1;fill-rule:nonzero;stroke:none"
         id="path474" />
    </g>
    <path
       d="M 44.075219,74.20363 38.13441,73.178521"
       style="fill:none;stroke:#000000;stroke-width:0.281167;stroke-linecap:butt;stroke-linejoin:miter;stroke-miterlimit:10;stroke-dasharray:none;stroke-opacity:1"
       id="path478" />
    <g
       id="g482"
       transform="matrix(0.34762721,0.05997575,0.05997575,-0.34762721,44.075219,74.203626)">
      <path
         d="M 4.66248,0 C 3.28098,0.25902 1.0361,1.0361 -0.51805,1.94269 V -1.94269 C 1.0361,-1.0361 3.28098,-0.25902 4.66248,0"
         style="fill:#000000;fill-opacity:1;fill-rule:nonzero;stroke:none"
         id="path484" />
    </g>
    <g
       id="g488"
       transform="matrix(-0.34762721,-0.05997575,-0.05997575,0.34762721,38.13441,73.178524)">
      <path
         d="M 4.66248,0 C 3.28098,0.25902 1.0361,1.0361 -0.51805,1.94269 V -1.94269 C 1.0361,-1.0361 3.28098,-0.25902 4.66248,0"
         style="fill:#000000;fill-opacity:1;fill-rule:nonzero;stroke:none"
         id="path490" />
    </g>
    <path
       d="m 44.071028,81.253844 -8.891058,1.39095"
       style="fill:none;stroke:#000000;stroke-width:0.281167;stroke-linecap:butt;stroke-linejoin:miter;stroke-miterlimit:10;stroke-dasharray:none;stroke-opacity:1"
       id="path494" />
    <g
       id="g498"
       transform="matrix(0.3485268,-0.05452533,-0.05452533,-0.3485268,44.071025,81.253851)">
      <path
         d="M 4.66248,0 C 3.28098,0.25902 1.0361,1.0361 -0.51805,1.94269 V -1.94269 C 1.0361,-1.0361 3.28098,-0.25902 4.66248,0"
         style="fill:#000000;fill-opacity:1;fill-rule:nonzero;stroke:none"
         id="path500" />
    </g>
    <g
       id="g504"
       transform="matrix(-0.3485268,0.05452533,0.05452533,0.3485268,35.179977,82.644787)">
      <path
         d="M 4.66248,0 C 3.28098,0.25902 1.0361,1.0361 -0.51805,1.94269 V -1.94269 C 1.0361,-1.0361 3.28098,-0.25902 4.66248,0"
         style="fill:#000000;fill-opacity:1;fill-rule:nonzero;stroke:none"
         id="path506" />
    </g>
    <path
       d="m 20.563173,119.14945 c 0,0.41421 2.238569,0.74998 5.000061,0.74998 2.761491,0 5.00006,-0.33577 5.00006,-0.74998 v -4.07028 c 0,-0.4142 -2.238569,-0.74997 -5.00006,-0.74997 -2.761492,0 -5.000061,0.33577 -5.000061,0.74997 z m 0,-4.07028 c 0,0.41421 2.238569,0.74998 5.000061,0.74998 2.761491,0 5.00006,-0.33577 5.00006,-0.74998"
       style="fill:none;stroke:#000000;stroke-width:0.140582;stroke-linecap:butt;stroke-linejoin:miter;stroke-miterlimit:10;stroke-dasharray:none;stroke-opacity:1"
       id="path514" />
    <path
       d="M 55.382576,102.06595 27.085417,113.63647"
       style="fill:none;stroke:#000000;stroke-width:0.281167;stroke-linecap:butt;stroke-linejoin:miter;stroke-miterlimit:10;stroke-dasharray:none;stroke-opacity:1"
       id="path526" />
    <g
       id="g530"
       transform="matrix(-0.32652405,0.13350169,0.13350169,0.32652405,27.085417,113.63647)">
      <path
         d="M 4.66248,0 C 3.28098,0.25902 1.0361,1.0361 -0.51805,1.94269 V -1.94269 C 1.0361,-1.0361 3.28098,-0.25902 4.66248,0"
         style="fill:#000000;fill-opacity:1;fill-rule:nonzero;stroke:none"
         id="path532" />
    </g>
    <path
       d="m 52.341536,114.01103 h -13.5561 c -0.552298,0 -1.000008,0.44771 -1.000008,1.00001 v 5.7768 c 0,0.55229 0.44771,1 1.000008,1 h 13.5561 c 0.552291,0 1.000005,-0.44771 1.000005,-1 v -5.7768 c 0,-0.5523 -0.447714,-1.00001 -1.000005,-1.00001 z"
       style="fill:#e6e6e6;fill-opacity:1;fill-rule:nonzero;stroke:#000000;stroke-width:0.140582;stroke-linecap:butt;stroke-linejoin:miter;stroke-miterlimit:10;stroke-dasharray:none;stroke-opacity:1"
       id="path538" />
    <g
       id="g544"
       transform="matrix(0.35277777,0,0,-0.35277777,-46.536358,228.64054)">
      <text
         xml:space="preserve"
         transform="matrix(1,0,0,-1,244.691,311.362)"
         style="font-variant:normal;font-weight:bold;font-size:11.9552px;font-family:LibertinusSans;-inkscape-font-specification:LibertinusSans-Bold;writing-mode:lr-tb;fill:#000000;fill-opacity:1;fill-rule:nonzero;stroke:none"
         id="text548"><tspan
           x="0 7.1492095 13.318092 18.351233 22.081255 26.313395"
           y="0"
           sodipodi:role="line"
           id="tspan546">Parity</tspan></text>
      <g
         id="g550"
         transform="translate(244.691,311.362)" />
    </g>
    <path
       d="M 60.371876,102.06595 46.84661,112.91181"
       style="fill:none;stroke:#000000;stroke-width:0.281167;stroke-linecap:butt;stroke-linejoin:miter;stroke-miterlimit:10;stroke-dasharray:none;stroke-opacity:1"
       id="path558" />
    <g
       id="g562"
       transform="matrix(-0.27520194,0.22068366,0.22068366,0.27520194,46.846613,112.9118)">
      <path
         d="M 4.66248,0 C 3.28098,0.25902 1.0361,1.0361 -0.51805,1.94269 V -1.94269 C 1.0361,-1.0361 3.28098,-0.25902 4.66248,0"
         style="fill:#000000;fill-opacity:1;fill-rule:nonzero;stroke:none"
         id="path564" />
    </g>
    <path
       d="m 29.563226,129.14958 c 0,0.4142 2.238569,0.74997 5.00006,0.74997 2.761492,0 5.000064,-0.33577 5.000064,-0.74997 v -4.07028 c 0,-0.4142 -2.238572,-0.74998 -5.000064,-0.74998 -2.761491,0 -5.00006,0.33578 -5.00006,0.74998 z m 0,-4.07028 c 0,0.41421 2.238569,0.74998 5.00006,0.74998 2.761492,0 5.000064,-0.33577 5.000064,-0.74998"
       style="fill:none;stroke:#000000;stroke-width:0.140582;stroke-linecap:butt;stroke-linejoin:miter;stroke-miterlimit:10;stroke-dasharray:none;stroke-opacity:1"
       id="path572" />
    <path
       d="m 38.717615,121.85814 -4.154558,2.40091"
       style="fill:none;stroke:#000000;stroke-width:0.281167;stroke-linecap:butt;stroke-linejoin:miter;stroke-miterlimit:10;stroke-dasharray:none;stroke-opacity:1"
       id="path584" />
    <path
       d="m 40.563422,129.14958 c 0,0.4142 2.238569,0.74997 5.000061,0.74997 2.761491,0 5.00006,-0.33577 5.00006,-0.74997 v -4.07028 c 0,-0.4142 -2.238569,-0.74998 -5.00006,-0.74998 -2.761492,0 -5.000061,0.33578 -5.000061,0.74998 z m 0,-4.07028 c 0,0.41421 2.238569,0.74998 5.000061,0.74998 2.761491,0 5.00006,-0.33577 5.00006,-0.74998"
       style="fill:none;stroke:#000000;stroke-width:0.140582;stroke-linecap:butt;stroke-linejoin:miter;stroke-miterlimit:10;stroke-dasharray:none;stroke-opacity:1"
       id="path592" />
    <path
       d="m 45.563363,121.85814 -1.13e-4,2.40091"
       style="fill:none;stroke:#000000;stroke-width:0.281167;stroke-linecap:butt;stroke-linejoin:miter;stroke-miterlimit:10;stroke-dasharray:none;stroke-opacity:1"
       id="path604" />
    <path
       d="m 51.563622,129.14958 c 0,0.4142 2.238566,0.74997 5.000057,0.74997 2.761492,0 5.000061,-0.33577 5.000061,-0.74997 v -4.07028 c 0,-0.4142 -2.238569,-0.74998 -5.000061,-0.74998 -2.761491,0 -5.000057,0.33578 -5.000057,0.74998 z m 0,-4.07028 c 0,0.41421 2.238566,0.74998 5.000057,0.74998 2.761492,0 5.000061,-0.33577 5.000061,-0.74998"
       style="fill:none;stroke:#000000;stroke-width:0.140582;stroke-linecap:butt;stroke-linejoin:miter;stroke-miterlimit:10;stroke-dasharray:none;stroke-opacity:1"
       id="path612" />
    <path
       d="m 52.409054,121.85814 4.154392,2.40091"
       style="fill:none;stroke:#000000;stroke-width:0.281167;stroke-linecap:butt;stroke-linejoin:miter;stroke-miterlimit:10;stroke-dasharray:none;stroke-opacity:1"
       id="path624" />
    <path
       d="m 93.004184,114.49184 h -14.88041 c -0.552291,0 -1.000002,0.44771 -1.000002,1 v 4.8152 c 0,0.55229 0.447711,1 1.000002,1 h 14.88041 c 0.552298,0 1.000012,-0.44771 1.000012,-1 v -4.8152 c 0,-0.55229 -0.447714,-1 -1.000012,-1 z"
       style="fill:#e6e6e6;fill-opacity:1;fill-rule:nonzero;stroke:#000000;stroke-width:0.140582;stroke-linecap:butt;stroke-linejoin:miter;stroke-miterlimit:10;stroke-dasharray:none;stroke-opacity:1"
       id="path630" />
    <g
       id="g636"
       transform="matrix(0.35277777,0,0,-0.35277777,-46.536358,228.64055)">
      <text
         xml:space="preserve"
         transform="matrix(1,0,0,-1,356.2,309.999)"
         style="font-variant:normal;font-weight:bold;font-size:11.9552px;font-family:LibertinusSans;-inkscape-font-specification:LibertinusSans-Bold;writing-mode:lr-tb;fill:#000000;fill-opacity:1;fill-rule:nonzero;stroke:none"
         id="text640"><tspan
           x="0 11.010739 14.740762 19.773901 24.711399 31.478041"
           y="0"
           sodipodi:role="line"
           id="tspan638">Mirror</tspan></text>
      <g
         id="g642"
         transform="translate(356.2,309.999)" />
    </g>
    <path
       d="m 70.607258,102.06595 13.688733,11.30811"
       style="fill:none;stroke:#000000;stroke-width:0.281167;stroke-linecap:butt;stroke-linejoin:miter;stroke-miterlimit:10;stroke-dasharray:none;stroke-opacity:1"
       id="path650" />
    <g
       id="g654"
       transform="matrix(0.27195638,0.224663,0.224663,-0.27195638,84.295984,113.37406)">
      <path
         d="M 4.66248,0 C 3.28098,0.25902 1.0361,1.0361 -0.51805,1.94269 V -1.94269 C 1.0361,-1.0361 3.28098,-0.25902 4.66248,0"
         style="fill:#000000;fill-opacity:1;fill-rule:nonzero;stroke:none"
         id="path656" />
    </g>
    <path
       d="m 69.563723,129.14958 c 0,0.4142 2.238569,0.74997 5.000061,0.74997 2.761491,0 5.00006,-0.33577 5.00006,-0.74997 v -4.07028 c 0,-0.4142 -2.238569,-0.74998 -5.00006,-0.74998 -2.761492,0 -5.000061,0.33578 -5.000061,0.74998 z m 0,-4.07028 c 0,0.41421 2.238569,0.74998 5.000061,0.74998 2.761491,0 5.00006,-0.33577 5.00006,-0.74998"
       style="fill:none;stroke:#000000;stroke-width:0.140582;stroke-linecap:butt;stroke-linejoin:miter;stroke-miterlimit:10;stroke-dasharray:none;stroke-opacity:1"
       id="path664" />
    <path
       d="m 79.549575,121.37733 -4.98602,2.88172"
       style="fill:none;stroke:#000000;stroke-width:0.281167;stroke-linecap:butt;stroke-linejoin:miter;stroke-miterlimit:10;stroke-dasharray:none;stroke-opacity:1"
       id="path676" />
    <path
       d="m 80.56392,129.14958 c 0,0.4142 2.238569,0.74997 5.00006,0.74997 2.761492,0 5.000061,-0.33577 5.000061,-0.74997 v -4.07028 c 0,-0.4142 -2.238569,-0.74998 -5.000061,-0.74998 -2.761491,0 -5.00006,0.33578 -5.00006,0.74998 z m 0,-4.07028 c 0,0.41421 2.238569,0.74998 5.00006,0.74998 2.761492,0 5.000061,-0.33577 5.000061,-0.74998"
       style="fill:none;stroke:#000000;stroke-width:0.140582;stroke-linecap:butt;stroke-linejoin:miter;stroke-miterlimit:10;stroke-dasharray:none;stroke-opacity:1"
       id="path684" />
    <path
       d="m 85.563878,121.37733 -1.3e-4,2.88172"
       style="fill:none;stroke:#000000;stroke-width:0.281167;stroke-linecap:butt;stroke-linejoin:miter;stroke-miterlimit:10;stroke-dasharray:none;stroke-opacity:1"
       id="path696" />
    <path
       d="m 91.56412,129.14958 c 0,0.4142 2.238569,0.74997 5.000053,0.74997 2.761492,0 5.000057,-0.33577 5.000057,-0.74997 v -4.07028 c 0,-0.4142 -2.238565,-0.74998 -5.000057,-0.74998 -2.761484,0 -5.000053,0.33578 -5.000053,0.74998 z m 0,-4.07028 c 0,0.41421 2.238569,0.74998 5.000053,0.74998 2.761492,0 5.000057,-0.33577 5.000057,-0.74998"
       style="fill:none;stroke:#000000;stroke-width:0.140582;stroke-linecap:butt;stroke-linejoin:miter;stroke-miterlimit:10;stroke-dasharray:none;stroke-opacity:1"
       id="path704" />
    <path
       d="m 91.578125,121.37733 4.985823,2.88172"
       style="fill:none;stroke:#000000;stroke-width:0.281167;stroke-linecap:butt;stroke-linejoin:miter;stroke-miterlimit:10;stroke-dasharray:none;stroke-opacity:1"
       id="path716" />
  </g>
</svg>
